<svg width="512" height="512" viewBox="0 0 512 512" fill="none" xmlns="http://www.w3.org/2000/svg">
<g clip-path="url(#clip0_381_7629)">
<path d="M320 426.667H106.667C78.3873 426.633 51.2759 415.384 31.2794 395.387C11.2828 375.391 0.0338743 348.279 0 320L0 106.667C0.0338743 78.3873 11.2828 51.2759 31.2794 31.2794C51.2759 11.2828 78.3873 0.0338743 106.667 0L320 0C348.279 0.0338743 375.391 11.2828 395.387 31.2794C415.384 51.2759 426.633 78.3873 426.667 106.667V320C426.633 348.279 415.384 375.391 395.387 395.387C375.391 415.384 348.279 426.633 320 426.667ZM512 405.333V128C512 122.342 509.752 116.916 505.752 112.915C501.751 108.914 496.325 106.667 490.667 106.667C485.009 106.667 479.582 108.914 475.582 112.915C471.581 116.916 469.333 122.342 469.333 128V405.333C469.333 422.307 462.591 438.586 450.588 450.588C438.586 462.591 422.307 469.333 405.333 469.333H128C122.342 469.333 116.916 471.581 112.915 475.582C108.914 479.582 106.667 485.009 106.667 490.667C106.667 496.325 108.914 501.751 112.915 505.752C116.916 509.752 122.342 512 128 512H405.333C433.613 511.966 460.724 500.717 480.721 480.721C500.717 460.724 511.966 433.613 512 405.333Z" fill="black"/>
</g>
<defs>
<clipPath id="clip0_381_7629">
<rect width="512" height="512" fill="white"/>
</clipPath>
</defs>
</svg>
