<svg width="512" height="512" viewBox="0 0 512 512" fill="none" xmlns="http://www.w3.org/2000/svg">
<rect width="512" height="512" rx="16" fill="white"/>
<path d="M61.4492 113.827H76.4147V398.172H61.4492V113.827Z" fill="black"/>
<path d="M458.034 413.138H428.103C419.838 413.138 413.138 419.838 413.138 428.103V458.034C413.138 466.299 419.838 473 428.103 473H458.034C466.299 473 473 466.299 473 458.034V428.103C473 419.838 466.299 413.138 458.034 413.138Z" fill="black"/>
<path d="M435.586 113.827H450.551V398.172H435.586V113.827Z" fill="black"/>
<path d="M113.827 61.4492H398.172V76.4147H113.827V61.4492Z" fill="black"/>
<path d="M83.8965 39H53.9655C45.7003 39 39 45.7003 39 53.9655V83.8965C39 92.1618 45.7003 98.862 53.9655 98.862H83.8965C92.1618 98.862 98.862 92.1618 98.862 83.8965V53.9655C98.862 45.7003 92.1618 39 83.8965 39Z" fill="black"/>
<path d="M458.034 39H428.103C419.838 39 413.138 45.7003 413.138 53.9655V83.8965C413.138 92.1618 419.838 98.862 428.103 98.862H458.034C466.299 98.862 473 92.1618 473 83.8965V53.9655C473 45.7003 466.299 39 458.034 39Z" fill="black"/>
<path d="M83.8965 413.138H53.9655C45.7003 413.138 39 419.838 39 428.103V458.034C39 466.299 45.7003 473 53.9655 473H83.8965C92.1618 473 98.862 466.299 98.862 458.034V428.103C98.862 419.838 92.1618 413.138 83.8965 413.138Z" fill="black"/>
<path d="M113.827 435.586H398.172V450.551H113.827V435.586Z" fill="black"/>
<path d="M203.281 177.575L203.283 177.587C205.635 191.111 206.846 210.37 206.846 235.507C206.846 260.638 205.636 280.004 203.282 293.737C200.949 307.146 196.685 316.346 190.998 322.033C185.721 327.309 177.74 330.31 166.246 330.31C154.8 330.31 146.69 327.332 141.192 322.032C135.7 316.338 131.541 307.132 129.21 293.734C126.856 280.001 125.647 260.636 125.647 235.507C125.647 210.37 126.857 191.111 129.209 177.587L129.211 177.575C131.554 163.908 135.735 154.74 141.192 149.284C146.696 143.779 154.802 140.703 166.246 140.703C177.7 140.703 185.662 143.782 190.946 149.231L190.997 149.284L191.051 149.336C196.676 154.79 200.943 163.938 203.281 177.575ZM189.818 411.348L189.842 411.359L189.867 411.369C196.959 414.25 204.649 415.66 212.88 415.66C224 415.66 233.007 410.807 239.519 401.523C245.886 392.727 251.111 379.74 255.404 362.978L256.633 358.177L251.801 357.078L245.139 355.564L242.039 354.86L240.169 357.43L237.769 360.732C235.537 363.702 233.63 365.516 232.093 366.494L231.873 366.634L231.67 366.797C230.75 367.533 229.203 368.162 226.507 368.162C219.642 368.162 212.436 367.304 204.88 365.561L204.834 365.55L204.789 365.54C197.259 363.955 188.186 361.664 177.552 358.655C166.82 355.617 158.246 353.37 151.865 351.929L151.807 351.916L151.748 351.904C145.421 350.639 139.349 349.993 133.542 349.993C119.836 349.993 108.632 355.818 100.292 367.088L99.346 368.367V369.957V373.591V378.258L104.011 378.411C115.91 378.801 126.166 380.647 134.856 383.853C143.844 387.373 154.001 392.395 165.344 398.962L165.37 398.977L165.396 398.992C175.16 404.484 183.315 408.622 189.818 411.348ZM415.417 332.067V211.085C423.175 211.102 428.477 212.403 431.85 214.448L431.877 214.464L431.904 214.48C435.809 216.777 438.599 219.668 440.445 223.144L440.473 223.195L440.501 223.246C442.744 227.233 445.615 233.842 449.117 243.27L450.285 246.414H453.638H458.105H462.928V241.591V200.577V195.754H458.105H321.664H316.841V200.577V241.591V246.414H321.664H326.131H329.484L330.652 243.27C334.142 233.873 336.953 227.236 339.093 223.196C341.095 219.657 343.925 216.751 347.688 214.464C351.227 212.392 356.626 211.102 364.352 211.085V332.065C364.078 332.135 363.749 332.211 363.356 332.289L363.319 332.297L363.282 332.305L355.77 333.929L351.966 334.751V338.643V342.704V347.527H356.789H422.98H427.802V342.704V338.643V334.751L423.999 333.929L416.486 332.305L416.45 332.297L416.413 332.289C416.032 332.213 415.702 332.139 415.417 332.067ZM251.09 148.827C229.612 130.964 201.161 122.276 166.246 122.276C131.331 122.276 102.881 130.964 81.4019 148.827C59.4874 167.053 49.0785 196.378 49.0785 235.507C49.0785 274.636 59.4874 303.96 81.4019 322.186C102.881 340.05 131.331 348.738 166.246 348.738C201.161 348.738 229.612 340.05 251.09 322.186C273.005 303.96 283.414 274.636 283.414 235.507C283.414 196.378 273.005 167.053 251.09 148.827Z" fill="black" stroke="white" stroke-width="9.64574"/>
</svg>
